<svg width="20" height="20" viewBox="0 0 20 20" fill="none" xmlns="http://www.w3.org/2000/svg">
    <path d="M15.833 3.333H15V2.5a.836.836 0 0 0-.833-.833.836.836 0 0 0-.834.833v.833H6.667V2.5a.836.836 0 0 0-.834-.833A.836.836 0 0 0 5 2.5v.833h-.833A1.66 1.66 0 0 0 2.508 5L2.5 16.666c0 .917.742 1.667 1.667 1.667h11.666c.917 0 1.667-.75 1.667-1.666V5c0-.917-.75-1.667-1.667-1.667zm0 12.5a.836.836 0 0 1-.833.833H5a.836.836 0 0 1-.833-.833V7.5h11.666v8.333zm-10-6.667H7.5v1.667H5.833V9.166zm3.334 0h1.666v1.667H9.167V9.166zm3.333 0h1.667v1.667H12.5V9.166z" fill="#757575"/>
</svg>
